<svg width="27" height="21" viewBox="0 0 27 21" fill="none" xmlns="http://www.w3.org/2000/svg">
<path d="M25.5322 2.94385C25.7373 2.94385 25.9082 2.87549 26.0449 2.73877C26.1816 2.60205 26.25 2.43115 26.25 2.22607V1.47412C26.25 1.26904 26.1816 1.09814 26.0449 0.961426C25.9082 0.824707 25.7373 0.756348 25.5322 0.756348H0.717773C0.512695 0.756348 0.341797 0.824707 0.205078 0.961426C0.0683594 1.09814 0 1.26904 0 1.47412V2.22607C0 2.43115 0.0683594 2.60205 0.205078 2.73877C0.341797 2.87549 0.512695 2.94385 0.717773 2.94385H25.5322ZM18.9697 10.9761C18.9697 11.1812 18.8957 11.3521 18.7476 11.4888C18.5994 11.6255 18.4229 11.6938 18.2178 11.6938H0.717773C0.512695 11.6938 0.341797 11.6255 0.205078 11.4888C0.0683594 11.3521 0 11.1812 0 10.9761V10.2241C0 10.019 0.0683594 9.84814 0.205078 9.71143C0.341797 9.57471 0.512695 9.50635 0.717773 9.50635H18.2178C18.4229 9.50635 18.5994 9.57471 18.7476 9.71143C18.8957 9.84814 18.9697 10.019 18.9697 10.2241V10.9761ZM26.25 19.7261C26.25 19.9312 26.1816 20.1021 26.0449 20.2388C25.9082 20.3755 25.7373 20.4438 25.5322 20.4438H0.717773C0.512695 20.4438 0.341797 20.3755 0.205078 20.2388C0.0683594 20.1021 0 19.9312 0 19.7261V18.9741C0 18.769 0.0683594 18.5981 0.205078 18.4614C0.341797 18.3247 0.512695 18.2563 0.717773 18.2563H25.5322C25.7373 18.2563 25.9082 18.3247 26.0449 18.4614C26.1816 18.5981 26.25 18.769 26.25 18.9741V19.7261Z" fill="white"/>
</svg>
