<svg width="94" height="27" viewBox="0 0 94 27" fill="none" xmlns="http://www.w3.org/2000/svg">
<g clip-path="url(#clip0_6706_205)">
<mask id="mask0_6706_205" style="mask-type:luminance" maskUnits="userSpaceOnUse" x="0" y="7" width="94" height="13">
<path d="M93.3431 7.16016H0.5V20.0002H93.3431V7.16016Z" fill="white"/>
</mask>
<g mask="url(#mask0_6706_205)">
<path d="M51.9836 8.40421C51.3435 8.06771 50.6414 7.87842 49.836 7.87842H42.6084V19.9505H45.4789V16.0807H49.485C50.3523 16.0807 51.1163 15.8914 51.7978 15.5339C52.4792 15.1764 53.0368 14.6506 53.4498 14.0196C53.8629 13.3677 54.0693 12.6526 54.0693 11.8324C54.0693 11.0752 53.8835 10.4022 53.4912 9.81332C53.1401 9.2034 52.6238 8.74071 51.9836 8.40421ZM50.7653 12.7157C50.5795 12.947 50.311 13.1574 50.0012 13.3046C49.6914 13.4518 49.3404 13.5149 48.9481 13.5149H45.4375V10.4653H48.9481C49.3404 10.4653 49.6914 10.5284 50.0012 10.6336C50.311 10.7387 50.5795 10.907 50.7653 11.1173C50.9512 11.3276 51.0544 11.58 51.0544 11.8744C51.0544 12.1899 50.9512 12.4633 50.7653 12.7157Z" fill="white"/>
<path d="M58.4749 7.87842H55.6045V19.9505H66.1362V17.3636H58.4749V7.87842Z" fill="white"/>
<path d="M73.4722 7.87842L67.5869 19.9505H70.4986L71.5518 17.8053H78.0359L79.0891 19.9505H82.0628L76.1774 7.87842H73.4722ZM72.6049 15.597L73.9678 12.7998C74.0711 12.5685 74.195 12.3371 74.2982 12.1268C74.4014 11.8955 74.5047 11.6641 74.5873 11.4538C74.6492 11.3066 74.7112 11.1594 74.7732 11.0332C74.8145 11.1594 74.8764 11.2856 74.9384 11.4328C75.021 11.6431 75.1242 11.8534 75.2275 12.0848C75.3307 12.2951 75.434 12.5474 75.5579 12.7998L76.9414 15.618H72.6049V15.597Z" fill="white"/>
<path d="M93.2816 7.87842H89.9361L86.1572 12.9891L82.275 7.87842H78.6611L84.6911 15.4498V19.9505H87.5824V15.3026L93.2816 7.87842Z" fill="white"/>
<path d="M28.2502 7.88086H25.2504L19.8457 19.9492H30.4377V17.362H24.0069L28.2502 7.88086Z" fill="white"/>
<path d="M13.8566 14.9999H20.3977L21.4558 12.6197H14.9289L15.9372 10.3809H22.4569L23.5791 7.88086H14.0169L8.60156 19.9492H18.1638L19.2896 17.4491H12.7556L13.8566 14.9999Z" fill="white"/>
<path d="M9.20009 7.88086L4.98185 17.4273H3.27888V7.89538H0.560547V19.9492H6.78101L12.1999 7.88086H9.20009Z" fill="white"/>
<path d="M37.9585 17.3614V10.4673L35.0799 12.3977V17.3614H31.8984V19.9485H41.1543V17.3614H37.9585Z" fill="white"/>
<path d="M31.4785 9.62951C34.7491 10.8306 38.3296 10.8306 41.6037 9.62951L40.7415 7.19482C38.0268 8.18901 35.0555 8.18901 32.3371 7.19482L31.4785 9.62951Z" fill="#FF87C8"/>
</g>
</g>
<defs>
<clipPath id="clip0_6706_205">
<rect width="93" height="26" fill="white" transform="translate(0.5 0.160156)"/>
</clipPath>
</defs>
</svg>
